<svg xmlns="http://www.w3.org/2000/svg" width="60.066" height="28.625" viewBox="0 0 60.066 28.625"><defs><style>.a{fill:#d4002a;}.b{fill:#1c1c1c;}</style></defs><rect class="a" width="2.051" height="7.41" rx="0.93" transform="translate(28.515 0)"/><rect class="a" width="2.051" height="7.41" rx="0.93" transform="translate(39.035 4.065) rotate(45)"/><rect class="a" width="2.051" height="7.41" rx="0.93" transform="translate(25.28 9.286) rotate(135)"/><rect class="b" width="2.051" height="6.451" transform="translate(14.819 13.724)"/><path class="b" d="M46.08,54.073l-5.9-1.1a28.494,28.494,0,0,0-8.149-5.249,22.175,22.175,0,0,0-2.988-1.014A19.541,19.541,0,0,0,24.931,46H24.6a1.632,1.632,0,0,0-.463,0,.474.474,0,0,0-.4.452V63.644a1.863,1.863,0,0,0,.287.562,1.863,1.863,0,0,0,.651.309h9.814a4.94,4.94,0,0,0,9.715,0h4.609a1.478,1.478,0,0,0,1.5-1.445V59.234a5.293,5.293,0,0,0-4.234-5.161ZM25.791,48.207a18.626,18.626,0,0,1,2.646.441,20.034,20.034,0,0,1,2.7.926A26.851,26.851,0,0,1,36.8,52.882H25.769ZM39.343,66.522a2.878,2.878,0,1,1,2.878-2.878A2.878,2.878,0,0,1,39.343,66.522Zm8.943-4.058H44.14a4.929,4.929,0,0,0-9.582,0H25.791v-7.52h13.75l6.1,1.18a3.231,3.231,0,0,1,2.646,3.11Z" transform="translate(-23.74 -40.201)"/><path class="b" d="M51.849,62.561l.695,3.926a1.51,1.51,0,0,0,1.742,1.148l4.532-.884a4.911,4.911,0,0,0,5.512,3.206A5.092,5.092,0,0,0,68.367,64.9l9.649-1.86a2.21,2.21,0,0,0,.584-.436,2.144,2.144,0,0,0,.176-.643l-.21-1.205L77.2,53.17l-.386-2.1-.871-4.937-.3-1.653a.478.478,0,0,0-.474-.379,2.2,2.2,0,0,0-.463.092h-.32a18.721,18.721,0,0,0-3.87,1.424,21.529,21.529,0,0,0-2.757,1.607A29.176,29.176,0,0,0,60.7,54.111l-5.591,2.3A5.554,5.554,0,0,0,51.849,62.561ZM74.8,51.39,63.923,53.457A27.321,27.321,0,0,1,68.9,49.025a20.948,20.948,0,0,1,2.481-1.47,17.023,17.023,0,0,1,2.558-1.01ZM60.6,65.523a3.049,3.049,0,0,1,1.255-3.015,2.783,2.783,0,0,1,3.156,0A3.055,3.055,0,0,1,66.2,65.6a2.935,2.935,0,0,1-2.292,2.326A2.879,2.879,0,0,1,60.6,65.523Zm-6.737-3.352a3.378,3.378,0,0,1,2-3.72l5.778-2.377L75.181,53.5l1.367,7.7-8.623,1.665a4.887,4.887,0,0,0-5.378-2.95,5.065,5.065,0,0,0-4.039,4.729l-4.058.781Z" transform="translate(-18.71 -41.42)"/><rect class="b" width="2.051" height="6.451" transform="translate(41.37 14.207) rotate(-10.52)"/></svg>