<svg xmlns="http://www.w3.org/2000/svg" width="56.061" height="33.079" viewBox="0 0 56.061 33.079"><defs><style>.a{fill:#d4002a;}.b,.c{fill:#1c1c1c;}.c{stroke:#1c1c1c;stroke-miterlimit:10;stroke-width:0.25px;}</style></defs><g transform="translate(0.125)"><rect class="a" width="1.77" height="6.396" rx="0.885" transform="translate(43.286 0)"/><rect class="a" width="1.77" height="6.396" rx="0.885" transform="translate(51.157 3.496) rotate(45)"/><rect class="a" width="1.77" height="6.396" rx="0.885" transform="translate(41.72 8.026) rotate(135)"/><path class="b" d="M55.319,51.86H52.53a.79.79,0,1,0,0,1.58h2.789a.79.79,0,1,0,0-1.58Zm0,0" transform="translate(-22.226 -33.624)"/><path class="c" d="M74.533,51.35l-2.5-6.415,1.494-1.095a.8.8,0,0,0-.952-1.275L64.634,48.39a32.74,32.74,0,0,0-9.08-5.806,26.553,26.553,0,0,0-3.407-1.152,21.177,21.177,0,0,0-4.635-.714.524.524,0,0,0-.3,0H30.248a3.074,3.074,0,0,0-1.98.723L21.8,46.981a3.036,3.036,0,0,0-1.066,2.313V54.31a7.014,7.014,0,0,0,2.9,5.711h0a5.492,5.492,0,0,0,3.217,1.037h.219a5.3,5.3,0,0,0,10.564.228H58.971a5.3,5.3,0,0,0,10.526,0h5.711a1.266,1.266,0,0,0,.952-.362,1.3,1.3,0,0,0,.381-.895V55.414a5.358,5.358,0,0,0-1.9-4.064ZM22.824,48.181,29.3,42.641a1.466,1.466,0,0,1,.952-.343h3.807v6.377H22.424a1.561,1.561,0,0,1,.409-.523Zm9.584,16.246a3.712,3.712,0,1,1,2.634-1.087,3.721,3.721,0,0,1-2.634,1.087ZM46.6,59.668H37.576a5.349,5.349,0,0,0-5.168-4.245,5.235,5.235,0,0,0-5.13,4.016H26.9A3.883,3.883,0,0,1,24.6,58.7h0A5.473,5.473,0,0,1,22.31,54.31v-.286h1.961a.79.79,0,0,0,0-1.57H22.31v-2.17l24.251-.067Zm0-11.031H35.653V42.3H46.6Zm24.155-2.732,1.627,4.369h-.152l-5.758-1.247ZM48.14,42.337a20.49,20.49,0,0,1,3.626.619,24.373,24.373,0,0,1,3.2,1.095,31.408,31.408,0,0,1,7.5,4.549H48.188ZM64.235,64.37a3.712,3.712,0,1,1,2.634-1.087A3.721,3.721,0,0,1,64.235,64.37Zm10.631-4.7H69.45a5.3,5.3,0,0,0-10.469,0H48.14V50.217L64.4,50.17a.59.59,0,0,0,.181,0l7.348,1.589a3.74,3.74,0,0,1,2.941,3.636Zm0,0" transform="translate(-20.73 -33.086)"/><path class="b" d="M71.96,52.93a.79.79,0,0,0-.79.79v1.437a2.16,2.16,0,0,0,2.141,2.17h2.027a.8.8,0,0,0,.79-.8C76.129,54.377,74.454,52.93,71.96,52.93Zm1.351,2.855a.581.581,0,0,1-.562-.59v-.581a2.046,2.046,0,0,1,1.656,1.171Zm0,0" transform="translate(-23.164 -33.676)"/></g></svg>