<svg xmlns="http://www.w3.org/2000/svg" width="35.723" height="42.1" viewBox="0 0 35.723 42.1"><defs><style>.a,.b,.c{fill:#1c1c1c;stroke:#1c1c1c;}.a,.b,.d{stroke-miterlimit:10;}.a{stroke-width:0.23px;}.b{stroke-width:0.22px;}.c{stroke-width:0.5px;}.d{fill:none;stroke:#d4002a;stroke-width:1.3px;}.e{fill:#d4002a;}</style></defs><g transform="translate(0.25 0.25)"><rect class="a" width="14.729" height="1.577" rx="0.788" transform="translate(3.911 5.803)"/><rect class="a" width="9.903" height="1.577" rx="0.788" transform="translate(3.911 10.934)"/><rect class="b" width="19.386" height="1.577" rx="0.788" transform="translate(3.911 33.095)"/><path class="c" d="M64.189,68.073V68.2a2.544,2.544,0,0,1-2.544,2.544H38.631A2.555,2.555,0,0,1,36.076,68.2V34.852A2.555,2.555,0,0,1,38.621,32.3H61.644a2.544,2.544,0,0,1,2.544,2.555V56.593l1.577,1.577V34.852a4.132,4.132,0,0,0-4.121-4.132H38.631a4.132,4.132,0,0,0-4.121,4.132V68.2a4.132,4.132,0,0,0,4.121,4.121H61.644a4.111,4.111,0,0,0,3.869-2.881Z" transform="translate(-34.51 -30.72)"/><rect class="d" width="3.343" height="10.145" rx="1.46" transform="translate(18.527 12.529) rotate(-45)"/><path class="d" d="M.4,0H4.205a.421.421,0,0,1,.421.421V14.414a2.3,2.3,0,0,1-2.3,2.3h0A2.3,2.3,0,0,1,0,14.414V.421A.421.421,0,0,1,.421,0Z" transform="translate(19.463 24.641) rotate(-45)"/><rect class="d" width="11.228" height="7.338" transform="translate(11.778 21.649) rotate(-45)"/><rect class="d" width="3.343" height="10.145" rx="1.46" transform="translate(8.227 22.824) rotate(-45)"/><rect class="e" width="3.69" height="1.409" transform="translate(22.571 27.105) rotate(-45)"/></g></svg>