<svg id="Layer_1" data-name="Layer 1" xmlns="http://www.w3.org/2000/svg" viewBox="0 0 100 100"><defs><style>.cls-1{fill:#231f20;}</style></defs><path class="cls-1" d="M92.68,71.68c-1.09,1.78-1.64,2-4.54,1.78a11.8,11.8,0,0,0-5.58-9.92,11.53,11.53,0,0,0-7.81-1.7A11.9,11.9,0,0,0,64.48,73.46h-26a11.88,11.88,0,0,0-4.62-9.26,11.34,11.34,0,0,0-7.2-2.46,11.49,11.49,0,0,0-8.19,3.34,11.78,11.78,0,0,0-3.6,8.15,9.7,9.7,0,0,1-7.55-9.36c0-2.75,0-5.5,0-8.26,0-2,.93-3,2.94-3H43.18c-.13-.31-.21-.53-.32-.74q-6-11.85-12-23.7a1.13,1.13,0,0,0-1.19-.76c-3.5,0-7,0-10.5,0h-.91v5.14c0,2.42-.59,3.09-3,3.4a3.42,3.42,0,0,0,.39,6.82,3.41,3.41,0,0,0,3.49-3.13,6,6,0,0,1,.08-.74,2.49,2.49,0,0,1,4.93.5A8.42,8.42,0,0,1,7.48,40.93a8.32,8.32,0,0,1,5.17-9.33.87.87,0,0,0,.64-1q0-3.61,0-7.25a4.21,4.21,0,0,1,4.45-4.44c4.75,0,9.5,0,14.25,0a7.09,7.09,0,0,1,6.76,4.18L51.85,48.94a2.48,2.48,0,0,0,.64.87V33.17c0-2,.94-2.92,2.9-2.93h6.33c0,.35,0,.65,0,.94,0,3.31,0,6.62,0,9.92a6.16,6.16,0,0,0,4.87,6.31,8.49,8.49,0,0,0,1.82.14c4.44,0,8.89,0,13.33,0a5.17,5.17,0,0,1,1.7.32q2.73,1,5.43,2.11a5.94,5.94,0,0,1,3.49,3.89,3.89,3.89,0,0,1,.12.49,3,3,0,0,1,0,.43h-.91c-2.34,0-4.67,0-7,0a2.51,2.51,0,0,0-2.75,2.48,2.55,2.55,0,0,0,2.74,2.52c2.69,0,5.39,0,8.08,0Z"/><path class="cls-1" d="M26.55,81.08a7.59,7.59,0,1,1,7.74-7.43A7.59,7.59,0,0,1,26.55,81.08Z"/><path class="cls-1" d="M76.31,81.08a7.59,7.59,0,1,1,7.61-7.55A7.62,7.62,0,0,1,76.31,81.08Z"/><path class="cls-1" d="M66.9,30.11c.38,0,.75.11,1.13.12a46.28,46.28,0,0,1,6.47.31,9.57,9.57,0,0,1,7.66,9.34c0,.86,0,1.71,0,2.63-.34,0-.61,0-.88,0H68.45c-1.36,0-1.68-.32-1.69-1.66,0-3.31,0-6.61,0-9.92a5.66,5.66,0,0,1,.14-.89Z"/><path class="cls-1" d="M66.91,30.09H61.78V26.9c-.75,0-1.41,0-2.07,0a2.51,2.51,0,1,1,0-5q4.54,0,9.08,0a2.51,2.51,0,1,1,0,5c-.66,0-1.32,0-2.13,0,.06,1.14.13,2.18.19,3.21Z"/></svg>