<svg id="Layer_1" data-name="Layer 1" xmlns="http://www.w3.org/2000/svg" viewBox="0 0 100 100"><defs><style>.cls-1{fill:#231f20;}</style></defs><path class="cls-1" d="M39.94,75.88H38.47c-5.2,0-10.39,0-15.59,0-6.52,0-10.58-4.07-10.58-10.58V30.75c0-6.35,4.09-10.42,10.45-10.43l46.63,0h1.81c-.47.53-.77.88-1.09,1.21-3.88,3.88-7.74,7.78-11.64,11.63a7.25,7.25,0,0,0-2.5,6.1c.09,1,0,2,0,3A5.77,5.77,0,0,0,61.24,48a41.76,41.76,0,0,0,4.48.1,6.85,6.85,0,0,0,4.92-2.33q7.83-7.86,15.69-15.69c.35-.35.71-.68,1.24-1.19.05.56.1.9.1,1.25q0,17.82,0,35.66c0,6-4.15,10-10.35,10.06q-8,.06-16,0a7.3,7.3,0,0,0-4.73,1.53c-3.93,3-7.92,5.92-11.88,8.87a9.47,9.47,0,0,1-1.13.78c-2.2,1.26-3.51.5-3.51-2s0-4.74,0-7.11C40.07,77.28,40,76.63,39.94,75.88ZM49.88,60h22.8a6.16,6.16,0,0,0,1.49-.11,1.87,1.87,0,0,0,0-3.7A7.91,7.91,0,0,0,72.55,56Q49.87,56,27.2,56c-2,0-3,.67-3,2s1,2,3,2ZM36.16,32.23h0c-3.24,0-6.48,0-9.72,0-1.4,0-2.22.74-2.24,1.83s.71,1.94,2.14,2.1c.2,0,.41,0,.62,0H45.15A7,7,0,0,0,46.51,36a1.74,1.74,0,0,0,1.43-1.79,1.66,1.66,0,0,0-1.23-1.81,5.1,5.1,0,0,0-1.46-.2C42.22,32.22,39.19,32.23,36.16,32.23Zm.75,15.83v.11c2,0,3.9,0,5.86,0a30.88,30.88,0,0,0,3.6-.17,1.72,1.72,0,0,0,1.57-1.92,1.78,1.78,0,0,0-1.67-1.85,5,5,0,0,0-.87-.07c-6.27,0-12.55,0-18.83,0-1.57,0-2.41.77-2.38,2.08,0,1.12.89,1.81,2.37,1.82Z"/><path class="cls-1" d="M59.84,40.46a8,8,0,0,1,2.64-5.84L83.15,14.06c2.27-2.26,2.85-2.26,5.08,0,.92.91,1.84,1.81,2.7,2.77,1,1.15,1,2-.07,3.15q-9.94,10-19.93,19.9c-.85.85-1.76,1.65-2.55,2.55-2,2.32-4.63,2.07-7.21,1.51-1.35-.3-1.14-1.66-1.32-2.69A4.68,4.68,0,0,1,59.84,40.46Z"/></svg>