<svg id="Layer_1" data-name="Layer 1" xmlns="http://www.w3.org/2000/svg" viewBox="0 0 100 100"><defs><style>.cls-1{fill:#231f20;}</style></defs><path class="cls-1" d="M93.92,56.16l-1.54-.55L94,49.33A13.36,13.36,0,0,0,85.59,33.4L71.05,28.14A13.34,13.34,0,0,0,54.41,35l-1.71,3.6a13.46,13.46,0,0,1,3.21,7.51l.62,6.45h1.63A3,3,0,0,1,61,55l2.43,13.77a6.24,6.24,0,0,1,.08,1l9.53,3.45-.76,2.1a5.84,5.84,0,0,0,3.5,7.49l1.74.63A5.83,5.83,0,0,0,85,79.91l.78-2.15a5.86,5.86,0,0,0,7.58-4.55l2.4-13.78A3,3,0,0,0,93.92,56.16ZM89.1,68.09a4.94,4.94,0,1,1-3-6.33A4.94,4.94,0,0,1,89.1,68.09Zm.05-20L87.67,53.9,56.35,42.57l2.56-5.4a8.34,8.34,0,0,1,10.43-4.29l.84.3-.64,1.76a2.9,2.9,0,0,0,1.75,3.73l7.39,2.67a2.92,2.92,0,0,0,3.75-1.74l.63-1.76.82.3A8.34,8.34,0,0,1,89.15,48.11Z"/><path class="cls-1" d="M61.47,69.78,59,56a3,3,0,0,0-2.88-2.44H54.53l-.62-6.45A13.37,13.37,0,0,0,40.59,35H25.13A13.34,13.34,0,0,0,11.81,47.12l-.62,6.45H9.56A3,3,0,0,0,6.67,56L4.24,69.77a5.88,5.88,0,0,0,5.6,6.87v2.29a5.82,5.82,0,0,0,5.83,5.84h1.84a5.85,5.85,0,0,0,5.86-5.84V76.68h19v2.24a5.84,5.84,0,0,0,5.84,5.85H50a5.84,5.84,0,0,0,5.85-5.85V76.64a5.86,5.86,0,0,0,4.29-2.08,5.94,5.94,0,0,0,1.37-3.81A7.77,7.77,0,0,0,61.47,69.78ZM15,71.37a4.95,4.95,0,1,1,5-4.94A4.94,4.94,0,0,1,15,71.37Zm1.23-17.8.57-6A8.36,8.36,0,0,1,25.13,40H26v1.87a2.89,2.89,0,0,0,2.91,2.91h7.86a2.91,2.91,0,0,0,2.93-2.91V40h.87a8.36,8.36,0,0,1,8.35,7.58l.26,2.71.31,3.24H16.2ZM51.71,71.28a5.23,5.23,0,0,1-1,.09,4.88,4.88,0,1,1,1-.09Z"/><path class="cls-1" d="M50.12,31.78c-.35-2.67-.7-5.35-1-8-.27-2.06-.52-4.13-.8-6.18s-.05-2.35,2-2.35h.42c1.26,0,1.64.42,1.49,1.69-.2,1.76-.43,3.52-.66,5.28q-.57,4.53-1.16,9.06a3.18,3.18,0,0,1-.14.53Z"/><path class="cls-1" d="M47.44,32.13l-6-7.91a3.07,3.07,0,0,1-.44-.6c-.2-.48-.63-1.23-.45-1.43a3.73,3.73,0,0,1,1.76-1.12c.66-.19.9.51,1.11,1Q45.25,26.51,47.1,31l.46,1.11Z"/><path class="cls-1" d="M53,30.92c.08-.23.15-.46.24-.68Q55.22,25.6,57.17,21c.41-1,.61-1.06,1.54-.6,1.82.88,1.84,1,.59,2.61q-2.82,3.7-5.65,7.4c-.16.21-.33.4-.49.61Z"/></svg>