<svg id="Layer_1" data-name="Layer 1" xmlns="http://www.w3.org/2000/svg" viewBox="0 0 100 100"><defs><style>.cls-1{fill:#231f20;}</style></defs><path class="cls-1" d="M86.73,45.29a5,5,0,0,0-4.85-4c-2.15,0-4.31,0-6.46,0a2.33,2.33,0,0,0,0,4.65h3.7A15,15,0,0,1,66,51.87a3,3,0,0,0-.85-.14h-.32a12,12,0,0,1-1.33-.27l-.6-6.18A13.34,13.34,0,0,0,49.59,33.16H34.13A13.35,13.35,0,0,0,20.81,45.28l-.62,6.45H18.56a2.94,2.94,0,0,0-2.88,2.44L13.25,67.93a5.87,5.87,0,0,0,5.59,6.87v2.29a5.83,5.83,0,0,0,5.83,5.84h1.84a5.85,5.85,0,0,0,5.87-5.84V74.84h19v2.24a5.84,5.84,0,0,0,5.85,5.85h1.84a5.84,5.84,0,0,0,5.85-5.85V74.8a5.86,5.86,0,0,0,5.57-6.86l-2-11.48c.38,0,.77-.05,1.16-.1a19.46,19.46,0,0,0,12.56-6.83v0c0,1.06,0,2.08,0,3.1A2.34,2.34,0,0,0,84.1,55a2.37,2.37,0,0,0,2.58-1.45l.12-.29,0-7.52-.06-.26A.78.78,0,0,1,86.73,45.29ZM24,69.53a4.95,4.95,0,1,1,5-4.94A4.94,4.94,0,0,1,24,69.53Zm1.24-17.8.57-5.95a8.35,8.35,0,0,1,8.35-7.58H35v1.87A2.89,2.89,0,0,0,37.93,43h7.86a2.93,2.93,0,0,0,2.25-1,2.89,2.89,0,0,0,.68-1.86V38.2h.87a8.51,8.51,0,0,1,2.59.41A8.36,8.36,0,0,1,58,45.78l.3,3.19.27,2.77H25.21Zm34.53,17.8a4.95,4.95,0,1,1,4.95-4.94A4.94,4.94,0,0,1,59.74,69.53Z"/><path class="cls-1" d="M52.53,32.36h6.09a2.55,2.55,0,0,0,1.76-.66A2.26,2.26,0,0,0,61.09,30a2.33,2.33,0,0,0-2.48-2.32h-3.5A15.08,15.08,0,0,1,80.51,30a14.46,14.46,0,0,1,1.67,6.8A2.32,2.32,0,0,0,84.1,39.1a2,2,0,0,0,.42,0,2.39,2.39,0,0,0,2.19-1.58l.13-.28V35.45l-.1-.72c-.07-.54-.15-1.07-.25-1.6A19.53,19.53,0,0,0,77,19.77a18.71,18.71,0,0,0-8.31-2.62l-.1,0-2.89-.05-.25.05-.11,0A19.54,19.54,0,0,0,52,24.09v0c0-1,0-2,0-3a2.32,2.32,0,0,0-2.33-2.42h0a2.34,2.34,0,0,0-2.33,2.43c0,2,0,4.09,0,6.14A5.1,5.1,0,0,0,52.53,32.36Z"/></svg>