<svg id="Layer_1" data-name="Layer 1" xmlns="http://www.w3.org/2000/svg" viewBox="0 0 100 100"><defs><style>.cls-1{fill:#231f20;}</style></defs><path class="cls-1" d="M85.14,31.27,55.47,11.88a7.36,7.36,0,0,0-8,0L17.74,31.28A4,4,0,0,0,22.14,38L51.48,18.83,80.79,38a4.05,4.05,0,0,0,2.17.64,4,4,0,0,0,2.18-7.35Z"/><path class="cls-1" d="M77.64,55.39A3,3,0,0,0,74.76,53H73.13l-.62-6.45A13.35,13.35,0,0,0,59.19,34.38H43.73A13.35,13.35,0,0,0,30.4,46.5L29.79,53H28.15a3,3,0,0,0-2.88,2.44L22.84,69.15A5.88,5.88,0,0,0,28.44,76v2.29a5.82,5.82,0,0,0,5.83,5.84h1.84A5.85,5.85,0,0,0,42,78.31V76.06H61V78.3a5.84,5.84,0,0,0,5.84,5.85h1.84a5.84,5.84,0,0,0,5.85-5.85V76a5.86,5.86,0,0,0,5.58-6.86ZM33.57,70.75a4.95,4.95,0,1,1,4.94-4.94A4.95,4.95,0,0,1,33.57,70.75ZM34.8,53l.57-6a8.36,8.36,0,0,1,8.36-7.58h.89v1.87a2.89,2.89,0,0,0,2.91,2.91h7.85a2.91,2.91,0,0,0,2.94-2.91V39.42h.87A8.35,8.35,0,0,1,67.54,47l.57,6Zm34.54,17.8a4.95,4.95,0,1,1,4.94-4.94A4.94,4.94,0,0,1,69.34,70.75Z"/></svg>