<svg id="Layer_1" data-name="Layer 1" xmlns="http://www.w3.org/2000/svg" viewBox="0 0 100 100"><defs><style>.cls-1{fill:#231f20;}</style></defs><path class="cls-1" d="M43.73,12.36c.88.19,1.77.35,2.64.57a16.36,16.36,0,1,1-6.29-.43c.19,0,.38-.09.57-.14Z"/><path class="cls-1" d="M61.65,52.72c-.11.61-.34.79-.95.76a7.85,7.85,0,0,0-7.42,3.75,57.27,57.27,0,0,0-3,5.21,8.11,8.11,0,0,0,.79,8.83,8.39,8.39,0,0,0-.28,9.81H15.65c-2.08,0-3-.87-3-2.94V67.49A15.49,15.49,0,0,1,25.76,51.84a15.27,15.27,0,0,1,2.7-.2q13.68,0,27.34,0A15.76,15.76,0,0,1,61.65,52.72Z"/><path class="cls-1" d="M60.41,60a12.32,12.32,0,0,1,1.62.66,3.06,3.06,0,0,0,3.84-.13C66.53,60,67,59.62,67,58.72a19,19,0,0,1,.25-2.11,1.71,1.71,0,0,1,1.9-1.71H74a1.7,1.7,0,0,1,1.87,1.67c.12.92.18,1.85.35,2.77a1.56,1.56,0,0,0,.56.81c.33.27.81.38,1.12.68A1.81,1.81,0,0,0,80.3,61a18.23,18.23,0,0,1,2-.87,1.57,1.57,0,0,1,2.1.66q1.36,2.27,2.64,4.58a1.58,1.58,0,0,1-.47,2.16c-.81.64-1.62,1.26-2.46,1.86a.84.84,0,0,0-.37.93,5.85,5.85,0,0,1,0,1.67,1.08,1.08,0,0,0,.52,1.28c.77.52,1.5,1.1,2.23,1.68A1.63,1.63,0,0,1,87,77.3c-.81,1.44-1.64,2.89-2.49,4.32a1.64,1.64,0,0,1-2.26.75c-.9-.37-1.81-.75-2.7-1.15a.84.84,0,0,0-1,.09,3.14,3.14,0,0,1-1,.67,2,2,0,0,0-1.4,2.1,16.32,16.32,0,0,1-.22,2A1.66,1.66,0,0,1,74,87.63c-1.62,0-3.24,0-4.85,0a1.7,1.7,0,0,1-1.9-1.7c-.12-.92-.19-1.86-.35-2.77a1.35,1.35,0,0,0-.53-.76c-.45-.33-1-.51-1.43-.87a1.34,1.34,0,0,0-1.71-.14,24.73,24.73,0,0,1-2.37,1,1.6,1.6,0,0,1-2.19-.74q-1.29-2.19-2.54-4.39a1.63,1.63,0,0,1,.5-2.32c.8-.62,1.62-1.19,2.39-1.84a1.3,1.3,0,0,0,.34-.84c0-.66,0-1.32,0-2a.84.84,0,0,0-.41-.91c-.79-.57-1.57-1.17-2.34-1.77a1.65,1.65,0,0,1-.47-2.39c.81-1.43,1.63-2.84,2.45-4.26A1.82,1.82,0,0,1,60.41,60ZM71.6,77.8a6.54,6.54,0,1,0-6.55-6.52A6.53,6.53,0,0,0,71.6,77.8Z"/></svg>