<svg id="Layer_1" data-name="Layer 1" xmlns="http://www.w3.org/2000/svg" viewBox="0 0 100 100"><defs><style>.cls-1{fill:#231f20;}</style></defs><path class="cls-1" d="M25.45,87.52H10.56c.25-2.1.31-4.17.75-6.16A29.67,29.67,0,0,1,28.69,59.88a2.19,2.19,0,0,1,1.74,0,22.89,22.89,0,0,0,22.47,0,2.06,2.06,0,0,1,1.52-.12A30.06,30.06,0,0,1,72.59,86.5c0,.31,0,.62,0,1H57.81a16.27,16.27,0,0,0-5.47-15.07A15.69,15.69,0,0,0,41,68.32,16.68,16.68,0,0,0,25.45,87.52Z"/><path class="cls-1" d="M33.32,75.47c4.24-4.28,12.36-4.37,16.38-.22l-5.52,5.52c-2.7-.89-3.23-.87-5.3.23Z"/><path class="cls-1" d="M53.8,87.53H45.66c.13-1.33.25-2.63.4-3.93a1,1,0,0,1,.3-.61c1.79-1.82,3.59-3.62,5.47-5.51A12.53,12.53,0,0,1,53.8,87.53Z"/><path class="cls-1" d="M37.73,87.51H29.52a12.47,12.47,0,0,1,1.72-9.73c1.92,1.91,3.78,3.76,5.63,5.63a1.24,1.24,0,0,1,.27.63C37.35,85.18,37.53,86.33,37.73,87.51Z"/><path class="cls-1" d="M41.64,87.2a2.56,2.56,0,0,1-2.56-2.58,2.57,2.57,0,0,1,5.14,0A2.56,2.56,0,0,1,41.64,87.2Z"/><path class="cls-1" d="M55.24,47.64H28.05a5.44,5.44,0,0,1-4.7-2.7,19,19,0,0,0,36.61,0A5.44,5.44,0,0,1,55.24,47.64Z"/><path class="cls-1" d="M41.65,16.85c-14,0-24.48,5.84-24.48,13.6a2.72,2.72,0,0,0,2.72,2.72h3.78a18.93,18.93,0,0,1,36,0H63.4a2.72,2.72,0,0,0,2.72-2.72C66.12,22.69,55.6,16.85,41.65,16.85Z"/><path class="cls-1" d="M41.7,20.17a19,19,0,0,0-18,13h36A18.94,18.94,0,0,0,41.7,20.17Z"/><path class="cls-1" d="M22.7,35.94A18.36,18.36,0,0,0,23.35,41a5.42,5.42,0,0,0,4.7,2.7H55.24A5.44,5.44,0,0,0,60,41a19.11,19.11,0,0,0,.64-4.81c0-.21,0-.41,0-.62H22.71C22.71,35.67,22.7,35.8,22.7,35.94Z"/><path class="cls-1" d="M78.93,49.36a6.58,6.58,0,0,1,.63.38,1.44,1.44,0,0,1,.52,1.2c0,.92,0,1.83,0,2.7,1,.21,2,.36,2.9.61a12,12,0,0,1,4.64,2.49,1.74,1.74,0,0,1,.53,1.95,2,2,0,0,1-1.66,1.46A1.87,1.87,0,0,1,85,59.74a11.3,11.3,0,0,0-4.4-2l-.22,0-.24,0v.37c0,2.61,0,5.21,0,7.81,0,.3.09.41.37.48a21,21,0,0,1,5.14,2,7.05,7.05,0,0,1,3.53,4.41,8.34,8.34,0,0,1-5,10.14,13.94,13.94,0,0,1-3.7.82l-.3,0c0,.44,0,.86,0,1.29s0,1.05,0,1.58A1.45,1.45,0,0,1,78.5,88,1.49,1.49,0,0,1,77,86.49c0-.88,0-1.76,0-2.63-.77-.11-1.52-.18-2.26-.32a14.06,14.06,0,0,1-6.84-3.37,2,2,0,0,1-.15-2.65A1.87,1.87,0,0,1,70.35,77c.47.29.89.66,1.35,1a12.4,12.4,0,0,0,4.93,1.94l.23,0s.07,0,.15,0v-.37q0-4.45,0-8.93c0-.33-.12-.42-.4-.5a22.18,22.18,0,0,1-5.06-1.89A6.62,6.62,0,0,1,68,63.87a7.51,7.51,0,0,1,2.51-7.79,10.56,10.56,0,0,1,6.1-2.4c.32,0,.39-.15.38-.44,0-.63,0-1.26,0-1.89a1.76,1.76,0,0,1,1.16-2ZM80.14,80a5.08,5.08,0,0,0,4.46-2.74,3.58,3.58,0,0,0-.46-4,8,8,0,0,0-4-2ZM77,65.47V57.52l-.59.07a5,5,0,0,0-3.52,2,3.23,3.23,0,0,0,.19,4A9.23,9.23,0,0,0,77,65.47Z"/></svg>