<svg id="Layer_1" data-name="Layer 1" xmlns="http://www.w3.org/2000/svg" viewBox="0 0 100 100"><defs><style>.cls-1{fill:#231f20;}</style></defs><path class="cls-1" d="M59.86,72.66,58,62.36a2.47,2.47,0,0,0-2.42-2H54.24l-.42-4.46-.1-1a11.87,11.87,0,0,0-.25-1.47,11.31,11.31,0,0,0-11-8.73h-13a11.24,11.24,0,0,0-11.21,10.2l-.52,5.43H16.4a2.48,2.48,0,0,0-2.43,2l-2,11.58A4.91,4.91,0,0,0,13,78a5,5,0,0,0,3.61,1.76v1.92a4.9,4.9,0,0,0,4.91,4.92h1.55A4.93,4.93,0,0,0,28,81.65V79.76H44v1.89a4.92,4.92,0,0,0,4.92,4.92h1.55a4.92,4.92,0,0,0,4.92-4.92V79.73A4.95,4.95,0,0,0,60.09,74ZM21,75.29a4.16,4.16,0,1,1,4.16-4.16A4.16,4.16,0,0,1,21,75.29Zm1-15,.48-5a7,7,0,0,1,7-6.38h.75v1.57A2.44,2.44,0,0,0,32.7,53h6.61a2.45,2.45,0,0,0,2.47-2.46V48.92h.73a7.09,7.09,0,0,1,2.74.55,7,7,0,0,1,4.29,5.83l.48,5H22Zm29.07,15a4.2,4.2,0,1,1,3.3-1.65A4.12,4.12,0,0,1,51.06,75.29Z"/><path class="cls-1" d="M86.69,13.43H49.23a2.26,2.26,0,0,0-1.46,2.39q0,13.75,0,27.52A11.24,11.24,0,0,1,56,51.73,1.74,1.74,0,0,1,57,51a3.57,3.57,0,0,1,1-.11H75.15a1.9,1.9,0,1,1,0,3.79H57.66a2,2,0,0,1-1.32-.47l.43,4.46h1.37a2.48,2.48,0,0,1,2.43,2L62.38,71l1-1,.13-.06,1.75,1.64c.44.42.88.84,1.33,1.24a1.86,1.86,0,0,0,2.68,0c.93-.91,1.84-1.85,2.81-2.82.89.9,1.75,1.78,2.62,2.64a1.94,1.94,0,0,0,3.06.05l3-2.75s.07,0,.16-.08c1.15.87,2.33,1.76,3.5,2.66.27.2.52.41.8.58a1.87,1.87,0,0,0,2.89-1.47c0-.21,0-.43,0-.64q0-27.57,0-55.13A2.26,2.26,0,0,0,86.69,13.43ZM70.82,45.71H57.72a1.9,1.9,0,1,1-.11-3.8q6.63,0,13.27,0a1.87,1.87,0,0,1,1.92,1.93A1.89,1.89,0,0,1,70.82,45.71ZM55.7,34.88A1.92,1.92,0,0,1,57.77,33h7.88a1.9,1.9,0,1,1,0,3.78H57.78A1.91,1.91,0,0,1,55.7,34.88Zm22-7.05c-3.36,0-6.71,0-10.06,0s-6.67,0-10,0a1.9,1.9,0,0,1-1.84-1.29,1.81,1.81,0,0,1,.69-2.12,2.25,2.25,0,0,1,1.14-.36q10,0,20.12,0a1.89,1.89,0,1,1,0,3.78Z"/></svg>