<svg id="Layer_1" data-name="Layer 1" xmlns="http://www.w3.org/2000/svg" viewBox="0 0 100 100"><defs><style>.cls-1{fill:#231f20;}</style></defs><path class="cls-1" d="M73.23,89.39H26.77a1,1,0,0,0-.19-.12,7.37,7.37,0,0,1-6.12-7.77V47.9a7.4,7.4,0,0,1,7.74-7.73h2.1c0-3.19,0-6.29,0-9.38a26.75,26.75,0,0,1,.31-3.9,19.68,19.68,0,0,1,39.06,3.67v9.62c1,0,1.8,0,2.64,0a7.31,7.31,0,0,1,7.18,7.18q.08,17.42,0,34.83a7.27,7.27,0,0,1-4.85,6.75C74.2,89.11,73.71,89.24,73.23,89.39ZM63.11,40.13c0-2.56,0-5.07,0-7.57A34,34,0,0,0,62.9,28a13.11,13.11,0,0,0-26,2.46c0,2.59,0,5.18,0,7.77v1.86ZM46.73,69.58v1.3c0,.8,0,1.59,0,2.39a3.25,3.25,0,0,0,3.22,3,3.2,3.2,0,0,0,3.27-3c.06-2.26,0-4.51,0-6.77A1.57,1.57,0,0,1,54,65a6.42,6.42,0,0,0,2.13-7.63,6.57,6.57,0,0,0-12.41.75,6.4,6.4,0,0,0,2.44,6.94,1.31,1.31,0,0,1,.63,1.26C46.7,67.42,46.73,68.5,46.73,69.58Z"/></svg>