<svg id="Layer_1" data-name="Layer 1" xmlns="http://www.w3.org/2000/svg" viewBox="0 0 100 100"><defs><style>.cls-1{fill:#231f20;}</style></defs><path class="cls-1" d="M41,10.71H16.44a5.74,5.74,0,0,0-5.73,5.73V31.17a5.74,5.74,0,0,0,5.73,5.73H41a5.74,5.74,0,0,0,5.74-5.73V16.44A5.74,5.74,0,0,0,41,10.71Z"/><path class="cls-1" d="M41,43.45H16.44a5.74,5.74,0,0,0-5.73,5.73V83.56a5.74,5.74,0,0,0,5.73,5.73H41a5.74,5.74,0,0,0,5.74-5.73V49.18A5.74,5.74,0,0,0,41,43.45Z"/><path class="cls-1" d="M83.56,63.1H59a5.74,5.74,0,0,0-5.74,5.73V83.56A5.74,5.74,0,0,0,59,89.29H83.56a5.74,5.74,0,0,0,5.73-5.73V68.83A5.74,5.74,0,0,0,83.56,63.1Z"/><path class="cls-1" d="M83.56,10.71H59a5.74,5.74,0,0,0-5.74,5.73V50.82A5.74,5.74,0,0,0,59,56.55H83.56a5.74,5.74,0,0,0,5.73-5.73V16.44A5.74,5.74,0,0,0,83.56,10.71Z"/></svg>