<svg id="Layer_1" data-name="Layer 1" xmlns="http://www.w3.org/2000/svg" viewBox="0 0 100 100"><defs><style>.cls-1{fill:#231f20;}</style></defs><path class="cls-1" d="M49.46,85.6c-1.68-.78-3.39-1.49-5-2.34A43.14,43.14,0,0,1,26.37,65.19a63.5,63.5,0,0,1-6.69-19.86,75.71,75.71,0,0,1-1.14-13.7A2.65,2.65,0,0,1,20.17,29q14.25-7.08,28.47-14.23a2.77,2.77,0,0,1,2.76,0Q65.68,21.94,80,29.06a2.32,2.32,0,0,1,1.48,2.15c.08,11.49-1.95,22.51-7.2,32.81A43,43,0,0,1,50.79,85.45a1.07,1.07,0,0,0-.22.15ZM27,36.64c.21,1.79.37,3.6.63,5.38A58,58,0,0,0,32.76,59.4,35.89,35.89,0,0,0,48.7,76.1a2.65,2.65,0,0,0,2.64,0A34.63,34.63,0,0,0,65.29,63c4.94-8.16,7-17.16,7.7-26.56a2.15,2.15,0,0,0-1.39-2.19L51.22,24a2.49,2.49,0,0,0-2.44,0Q38.64,29.14,28.47,34.2A2.35,2.35,0,0,0,27,36.64Z"/><path class="cls-1" d="M68.66,38.19c-.92,8.68-3,17-8.06,24.31a30.16,30.16,0,0,1-9.9,9.2,1.2,1.2,0,0,1-1.39,0A31.65,31.65,0,0,1,37.16,58.81a53.48,53.48,0,0,1-5.51-18.1c-.13-.92-.23-1.84-.28-2.76a.87.87,0,0,1,.36-.69q9-4.51,18-9a1,1,0,0,1,.75,0l17.78,8.87A.76.76,0,0,1,68.66,38.19Z"/></svg>