<svg id="Layer_1" data-name="Layer 1" xmlns="http://www.w3.org/2000/svg" viewBox="0 0 100 100"><defs><style>.cls-1{fill:#231f20;}.cls-2{fill:none;}</style></defs><path class="cls-1" d="M70.48,47.91c-.85-.2-1.72-.33-2.75-.53C74,46.14,76.49,41,76.11,36.89A9.69,9.69,0,0,0,57,35.83a9.35,9.35,0,0,0,1.57,7.44A10,10,0,0,0,65,47.38a2.51,2.51,0,0,1-.71.19A17,17,0,0,0,49.51,64.12a2.45,2.45,0,0,0,2.65,2.67H80.73a2.46,2.46,0,0,0,2.67-2.73A17,17,0,0,0,70.48,47.91Z"/><path class="cls-2" d="M44,44.74a2.38,2.38,0,0,0-2.37-2.37H32.5a2.37,2.37,0,0,0,0,4.74h9.1A2.38,2.38,0,0,0,44,44.74Z"/><path class="cls-2" d="M42.24,79.17a2.43,2.43,0,0,0,2.45,2.46c.77,0,1.55,0,2.33,0s1.66,0,2.49,0a2.42,2.42,0,0,0,0-4.83c-1.61,0-3.22,0-4.83,0A2.42,2.42,0,0,0,42.24,79.17Z"/><path class="cls-2" d="M37.37,52.27q-2.41,0-4.83,0a2.42,2.42,0,0,0,0,4.83c.81,0,1.61,0,2.42,0s1.61,0,2.41,0a2.42,2.42,0,1,0,0-4.83Z"/><path class="cls-2" d="M37.43,62c-1.63,0-3.27,0-4.91,0a2.42,2.42,0,0,0,0,4.83c.81,0,1.61,0,2.42,0s1.66,0,2.49,0a2.42,2.42,0,0,0,0-4.83Z"/><path class="cls-2" d="M47.11,18.37a2.42,2.42,0,1,0,2.39,2.42A2.44,2.44,0,0,0,47.11,18.37Z"/><path class="cls-1" d="M68.88,23.37v-7c0-4.62-3.08-7.7-7.68-7.7H33a8.92,8.92,0,0,0-1.37.07,7.24,7.24,0,0,0-6.29,7.49q0,24.62,0,49.23,0,9.24,0,18.48A6.92,6.92,0,0,0,28.49,90a18,18,0,0,0,3.09,1.29h31a2.12,2.12,0,0,1,.21-.11,7.23,7.23,0,0,0,6.08-7.58q0-5.44,0-10.9v-1.1h-.95c-5.3,0-10.6,0-15.9,0a7.23,7.23,0,0,1-7.36-7.52,21.17,21.17,0,0,1,6.32-15c1.09-1.1,2.33-2,3.53-3.07-3.28-5.23-3.69-10.66-.34-16S62.6,22.65,68.88,23.37ZM37.46,66.78c-.83,0-1.66,0-2.49,0s-1.61,0-2.42,0a2.42,2.42,0,0,1,0-4.83c1.64,0,3.28,0,4.91,0a2.42,2.42,0,0,1,0,4.83Zm-.1-9.68c-.8,0-1.61,0-2.41,0s-1.61,0-2.42,0a2.42,2.42,0,0,1,0-4.83q2.41,0,4.83,0a2.42,2.42,0,1,1,0,4.83Zm-4.86-10a2.37,2.37,0,0,1,0-4.74h9.1a2.37,2.37,0,0,1,0,4.74ZM44.69,76.8c1.61,0,3.22,0,4.83,0a2.42,2.42,0,0,1,0,4.83c-.83,0-1.66,0-2.49,0s-1.56,0-2.33,0a2.42,2.42,0,1,1,0-4.83ZM47,23.2a2.42,2.42,0,1,1,2.49-2.41A2.45,2.45,0,0,1,47,23.2Z"/></svg>