<svg id="Layer_1" data-name="Layer 1" xmlns="http://www.w3.org/2000/svg" viewBox="0 0 100 100"><defs><style>.cls-1{fill:#231f20;}.cls-2{fill:none;}</style></defs><path class="cls-1" d="M70.09,60.24q-7.29,0-14.59,0c-1.85,0-3.07,1.07-3.09,2.54s1.13,2.51,3,2.54c2.4,0,4.8,0,7.2,0s4.93,0,7.4,0c2.09,0,3.21-1,3.15-2.59S72,60.25,70.09,60.24Z"/><path class="cls-2" d="M44.66,58a5.08,5.08,0,1,0,5.08,5.08A5.07,5.07,0,0,0,44.66,58Z"/><path class="cls-2" d="M80.9,58A5.08,5.08,0,1,0,86,63.1,5.08,5.08,0,0,0,80.9,58Z"/><path class="cls-2" d="M70.09,60.24q-7.29,0-14.59,0c-1.85,0-3.07,1.07-3.09,2.54s1.13,2.51,3,2.54c2.4,0,4.8,0,7.2,0s4.93,0,7.4,0c2.09,0,3.21-1,3.15-2.59S72,60.25,70.09,60.24Z"/><path class="cls-1" d="M93.74,59.36a9.67,9.67,0,0,0-4.12-7.81A5.27,5.27,0,0,1,87.86,49c-1.21-4.39-2.24-8.84-3.38-13.25-1.08-4.19-3.7-6.27-8-6.29q-13.68,0-27.34,0a7.73,7.73,0,0,0-8,6.3c-1.14,4.48-2.19,9-3.39,13.44a4.51,4.51,0,0,1-1.55,2.26,9.49,9.49,0,0,0-4.24,7.93q0,3,0,6.06c0,6.33,3.91,10.22,10.23,10.23H62.83c7.1,0,14.19,0,21.29,0A9.43,9.43,0,0,0,93.75,66C93.77,63.79,93.79,61.58,93.74,59.36ZM44.66,68.18a5.08,5.08,0,1,1,5.08-5.08A5.08,5.08,0,0,1,44.66,68.18ZM70,65.32c-2.47,0-4.93,0-7.4,0s-4.8,0-7.2,0c-1.9,0-3.06-1-3-2.54s1.24-2.53,3.09-2.54q7.29,0,14.59,0c2,0,3,.95,3.1,2.49S72.13,65.3,70,65.32ZM42.87,49.9c1.19-4.66,2.26-9.2,3.58-13.67a3.06,3.06,0,0,1,2.4-1.5c9.3-.11,18.6-.13,27.9,0a3.2,3.2,0,0,1,2.46,1.69c1.32,4.41,2.37,8.9,3.54,13.49Zm38,18.28A5.08,5.08,0,1,1,86,63.1,5.09,5.09,0,0,1,80.9,68.18Z"/><path class="cls-1" d="M70.09,60.24q-7.29,0-14.59,0c-1.85,0-3.07,1.07-3.09,2.54s1.13,2.51,3,2.54c2.4,0,4.8,0,7.2,0s4.93,0,7.4,0c2.09,0,3.21-1,3.15-2.59S72,60.25,70.09,60.24Z"/><path class="cls-1" d="M33.7,44.12c.83-3.06,1.57-6.14,2.4-9.5H17.21c1.23-4.82,2.3-9.36,3.64-13.82a3.31,3.31,0,0,1,2.59-1.56c9-.11,18.09-.06,27.14,0,1.59,0,2.76.74,2.9,2.31.23,2.48,1.53,3.16,3.76,2.82a16.56,16.56,0,0,1,2.28,0c-.44-1.74-.73-3.14-1.14-4.5A7.64,7.64,0,0,0,50.7,14c-9.12,0-18.23,0-27.35,0a7.63,7.63,0,0,0-7.78,6.11c-1.16,4.48-2.2,9-3.43,13.44a5.17,5.17,0,0,1-1.75,2.56,9.74,9.74,0,0,0-4.14,8c0,2.28,0,4.56,0,6.84.1,4.46,3.15,8.48,7.51,8.94s8.53.1,12.33.1l3.34-10L29.07,50a2.47,2.47,0,0,1-2.24-2.73c.14-1.65,1.25-2.33,2.83-2.34a26,26,0,0,0,2.93,0A1.5,1.5,0,0,0,33.7,44.12ZM17.86,52.51a5.08,5.08,0,1,1,5.08-5.08A5.09,5.09,0,0,1,17.86,52.51Z"/><path class="cls-1" d="M29.44,50Z"/><path class="cls-1" d="M21.26,70.48c3-.3,5.18-2.47,5-5.26H11.51C12.22,69.53,15.07,71.08,21.26,70.48Z"/><path class="cls-1" d="M83.08,85.91c3.09-.33,5.35-2.7,5.27-5.26H73.45C74.22,85,77.32,86.52,83.08,85.91Z"/><path class="cls-1" d="M43.58,85.94c5.59.11,8-1.3,8.53-5.27H37.21C37.53,83.91,39.84,85.87,43.58,85.94Z"/></svg>