<svg id="Layer_1" data-name="Layer 1" xmlns="http://www.w3.org/2000/svg" viewBox="0 0 100 100"><defs><style>.cls-1{fill:#231f20;}</style></defs><path class="cls-1" d="M27.74,14.39H72.25A2.67,2.67,0,0,1,74,17.23q0,32.75,0,65.5c0,.25,0,.51,0,.76a2.22,2.22,0,0,1-3.42,1.75,9.29,9.29,0,0,1-1-.7l-4.17-3.16a1.31,1.31,0,0,0-.19.1c-1.17,1.09-2.33,2.19-3.51,3.27a2.31,2.31,0,0,1-3.64-.06c-1-1-2.06-2.06-3.12-3.13-1.14,1.15-2.22,2.27-3.34,3.35a2.21,2.21,0,0,1-3.18,0c-.54-.48-1-1-1.57-1.48-.71-.65-1.41-1.31-2.08-2l-.16.08-3.36,3.11c-1.3,1.2-2.46,1.19-3.69,0s-2.13-2.19-3.22-3.31c-1.6,1.29-3.08,2.5-4.6,3.68a2.24,2.24,0,0,1-3.61-1A4.81,4.81,0,0,1,26,82.73Q26,50,26,17.23A2.69,2.69,0,0,1,27.74,14.39ZM49.62,31.5h12a2.25,2.25,0,0,0,2.33-2.25A2.22,2.22,0,0,0,61.63,27q-12,0-23.9,0a2.6,2.6,0,0,0-1.35.43A2.14,2.14,0,0,0,35.56,30a2.24,2.24,0,0,0,2.18,1.52ZM48.18,63.35H58.54a2.26,2.26,0,1,0,0-4.5H38.19A4.25,4.25,0,0,0,37,59a2.24,2.24,0,0,0,.81,4.36ZM45.55,52.74c2.61,0,5.23,0,7.85,0a2.26,2.26,0,1,0,.08-4.52c-5.26,0-10.52,0-15.78,0a2.26,2.26,0,1,0,.13,4.52C40.41,52.76,43,52.74,45.55,52.74Zm-3-10.64h4.72a2.25,2.25,0,1,0,0-4.49H37.89a2.26,2.26,0,1,0,0,4.49Z"/></svg>