<svg id="Layer_1" data-name="Layer 1" xmlns="http://www.w3.org/2000/svg" viewBox="0 0 100 100"><defs><style>.cls-1{fill:#231f20;}</style></defs><path class="cls-1" d="M32.88,87.52H17.07A64.94,64.94,0,0,1,17.86,81c2.36-10.64,8.57-18.25,18.46-22.82a2.4,2.4,0,0,1,1.84.06A24.27,24.27,0,0,0,62,58.2a2.13,2.13,0,0,1,1.62-.12c11.12,4.48,19.2,16.38,19.29,28.35,0,.33,0,.66-.05,1.07H67.24a17.25,17.25,0,0,0-5.81-16,16.65,16.65,0,0,0-12-4.37A17.71,17.71,0,0,0,32.88,87.52Z"/><path class="cls-1" d="M41.23,74.72c4.51-4.54,13.13-4.64,17.4-.23l-5.87,5.87c-2.86-1-3.43-.93-5.62.24Z"/><path class="cls-1" d="M63,87.53H54.34c.14-1.41.26-2.8.42-4.18a1.22,1.22,0,0,1,.32-.64c1.9-1.93,3.82-3.85,5.81-5.85A13.28,13.28,0,0,1,63,87.53Z"/><path class="cls-1" d="M45.91,87.51H37.2A13.25,13.25,0,0,1,39,77.17c2,2,4,4,6,6a1.27,1.27,0,0,1,.28.66C45.51,85,45.71,86.26,45.91,87.51Z"/><path class="cls-1" d="M50.07,87.18a2.71,2.71,0,0,1-2.72-2.74,2.73,2.73,0,0,1,5.46,0A2.71,2.71,0,0,1,50.07,87.18Z"/><path class="cls-1" d="M64.51,45.17H35.64a5.76,5.76,0,0,1-5-2.87,20.13,20.13,0,0,0,38.87,0A5.76,5.76,0,0,1,64.51,45.17Z"/><path class="cls-1" d="M50.08,12.47c-14.82,0-26,6.21-26,14.44A2.89,2.89,0,0,0,27,29.8h4a20.11,20.11,0,0,1,38.19,0h4a2.89,2.89,0,0,0,2.89-2.89C76.07,18.68,64.89,12.47,50.08,12.47Z"/><path class="cls-1" d="M50.13,16A20.16,20.16,0,0,0,31,29.8H69.17A20.1,20.1,0,0,0,50.13,16Z"/><path class="cls-1" d="M30,32.74a19.82,19.82,0,0,0,.7,5.37,5.78,5.78,0,0,0,5,2.87H64.51a5.76,5.76,0,0,0,5-2.9A20,20,0,0,0,70.2,33c0-.22,0-.44,0-.66H30C30,32.46,30,32.6,30,32.74Z"/></svg>