<svg id="Layer_1" data-name="Layer 1" xmlns="http://www.w3.org/2000/svg" viewBox="0 0 100 100"><defs><style>.cls-1{fill:#231f20;}</style></defs><path class="cls-1" d="M87.12,47.28c0-.11-.05-.22-.07-.33-.08-.52-.14-1-.21-1.56-.14-1.09-.29-2.23-.53-3.35a37.4,37.4,0,0,0-36-29.23h-.11a4.19,4.19,0,1,0-.1,8.37l.47,0a31,31,0,0,1,3.69.29,27.43,27.43,0,0,1,17.61,9.75c7.68,9.34,9.18,19.55,4.47,30.34-4.48,10.27-12.63,16-24.21,17.14a26.3,26.3,0,0,1-14.86-2.89c-9.61-5-15-13-16-23.69A27.27,27.27,0,0,1,24,37.52a4.13,4.13,0,0,0,3.92,3.07,4.34,4.34,0,0,0,3-1.17,4.21,4.21,0,0,0,1.27-3c0-3.51,0-7.13,0-11.08a4.1,4.1,0,0,0-4-4.14c-4,0-7.67,0-11.29,0a4.17,4.17,0,0,0,.08,8.33c.67,0,1.34,0,2,0A36.56,36.56,0,0,0,13.32,56,36.17,36.17,0,0,0,24.91,77.44,36.31,36.31,0,0,0,43.6,86.62c.91.16,1.83.28,2.75.4l1.22.16h4.76L53.65,87c.92-.11,1.84-.23,2.76-.39A37.23,37.23,0,0,0,87.07,52.9a.8.8,0,0,1,0-.15l.09-5Z"/><path class="cls-1" d="M47.42,59.7H63.57a4.18,4.18,0,0,0,4.35-4.14,4.12,4.12,0,0,0-1.18-2.94,4.43,4.43,0,0,0-3.2-1.27H51.42V33.72a4.41,4.41,0,0,0-1.25-3.19,4.27,4.27,0,0,0-3-1.17,4.16,4.16,0,0,0-4.14,4.33q0,10.83,0,21.67A4.16,4.16,0,0,0,47.42,59.7Z"/></svg>