<svg id="Layer_1" data-name="Layer 1" xmlns="http://www.w3.org/2000/svg" viewBox="0 0 100 100"><defs><style>.cls-1{fill:#231f20;}</style></defs><path class="cls-1" d="M83.86,73H71.39a14.26,14.26,0,1,1,0-28.51H83.86a1.79,1.79,0,0,0,1.79-1.79V37.31a7.13,7.13,0,0,0-6.57-7.08L68.85,12.36a7,7,0,0,0-9.68-2.61L24.08,30.18H17.92a7.13,7.13,0,0,0-7.13,7.13V80.08a7.14,7.14,0,0,0,7.13,7.13h60.6a7.14,7.14,0,0,0,7.13-7.13V74.74A1.79,1.79,0,0,0,83.86,73ZM71.06,23.39l3.88,6.79H59.41ZM31.17,30.18,61,12.83a3.43,3.43,0,0,1,2.64-.36,3.5,3.5,0,0,1,2.14,1.66h0l-27.56,16Z"/><path class="cls-1" d="M83.86,48H71.39a10.7,10.7,0,1,0,0,21.39H83.86A5.36,5.36,0,0,0,89.21,64V53.35A5.36,5.36,0,0,0,83.86,48ZM71.39,62.26A3.57,3.57,0,1,1,75,58.69,3.57,3.57,0,0,1,71.39,62.26Z"/></svg>