<svg id="Layer_1" data-name="Layer 1" xmlns="http://www.w3.org/2000/svg" viewBox="0 0 100 100"><defs><style>.cls-1{fill:#231f20;}</style></defs><path class="cls-1" d="M63.59,7.67a3,3,0,0,1,1.88,3.21c0,8.35,0,16.69,0,25v.87a31.93,31.93,0,0,0-3.33-.64,2.5,2.5,0,0,0-3,2.78c0,3.3,0,6.61,0,9.92v.95H56.32v-.9c0-4.27,0-8.54,0-12.81a9.38,9.38,0,0,0-9.17-9.22,9.27,9.27,0,0,0-9.52,8.73c-.16,4.07-.07,8.15-.06,12.23A1.91,1.91,0,0,1,37,49.26c-1.08,1.13-2.1,2.33-3.08,3.55a1.09,1.09,0,0,1-1.1.49A2.49,2.49,0,0,1,30.54,51c0-.33,0-.66,0-1,0-13,0-26,0-39a3.2,3.2,0,0,1,1.83-3.34Z"/><path class="cls-1" d="M64.1,42c3,2.26,5.53,4.64,5.4,8.6A11.22,11.22,0,0,1,68.78,54c-2.41,6.53-4.89,13-7.31,19.55a4.6,4.6,0,0,1-1.56,2.16c-4.7,3.6-9.88,4.48-15.31,2.16a14.34,14.34,0,0,1-9.15-12.55A14.29,14.29,0,0,1,40.81,52.5a4.29,4.29,0,0,0,1.72-3.69c-.08-4,0-8,0-12.07,0-2.3,1-3.91,2.82-4.6a4.4,4.4,0,0,1,6,4c.06,2.56,0,5.13,0,7.69s0,5.4,0,8.1a2.53,2.53,0,0,0,2.86,2.84h7c1.94,0,2.85-.93,2.85-2.9C64.11,48.67,64.1,45.42,64.1,42Z"/><path class="cls-1" d="M35.32,77.17A20,20,0,0,0,50.38,84c5.92,0,10.83-2.41,15-6.57,0,.22,0,.43,0,.63V89.41c0,2-.93,2.92-2.93,2.92H38.29c-2,0-3-.94-3-2.91Z"/></svg>