<svg id="Layer_1" data-name="Layer 1" xmlns="http://www.w3.org/2000/svg" viewBox="0 0 100 100"><defs><style>.cls-1{fill:#231f20;}</style></defs><path class="cls-1" d="M16.24,78.61V48a1.42,1.42,0,0,0,.08-.18c1-3.47,2.93-5,6.53-5H77.7a5.87,5.87,0,0,1,6,5.84q0,14.61,0,29.2a5.85,5.85,0,0,1-3.94,5.48c-.39.13-.79.23-1.19.34H21.38l-.5-.14a5.91,5.91,0,0,1-4.36-4C16.41,79.29,16.33,79,16.24,78.61ZM29.92,62.72a28.1,28.1,0,0,0-2.32,1.91,11.4,11.4,0,0,0-3.33,8.91c.06,1.54.78,2.3,2.32,2.3h18a2,2,0,0,0,2.11-2.1q0-.66,0-1.32a11.12,11.12,0,0,0-4.77-9c-.29-.21-.6-.41-.91-.62a7.26,7.26,0,1,0-11.1-.05Zm33.26-2H52.84a2,2,0,0,0-2,1.14,2,2,0,0,0,1.89,2.81c2.87,0,5.75,0,8.63,0H73.56a2,2,0,1,0,.09-4C70.16,60.67,66.67,60.68,63.18,60.68Zm-.06,11.87H73.26c1.53,0,2.44-.73,2.45-2s-.91-2-2.42-2H52.88a2,2,0,0,0-2,1.11,2,2,0,0,0,1.91,2.84C56.22,72.56,59.67,72.55,63.12,72.55ZM57.91,52.77H52.78a2,2,0,1,0,0,4H63a2,2,0,1,0,0-4Z"/><path class="cls-1" d="M51.83,30.75h-.66c-3.1,0-6.2,0-9.29,0a1.36,1.36,0,0,1-.88-.4c-3-3.52-6.07-7.06-9.11-10.59a2.08,2.08,0,0,1-.47-2.36,2,2,0,0,1,2.11-1.14c1.63,0,3.25,0,4.88,0a2.11,2.11,0,0,1,1.68.75L51.58,30.41C51.65,30.49,51.7,30.57,51.83,30.75Z"/><path class="cls-1" d="M52.61,25.52l5.94-6.94c.44-.51.89-1,1.32-1.55a2.11,2.11,0,0,1,1.67-.78c1.73,0,3.47,0,5.2,0a2,2,0,0,1,1.52,3.3Q63.6,25,58.92,30.45a1.81,1.81,0,0,1-2.07,0Z"/><path class="cls-1" d="M59.2,38.92H40.71A15.08,15.08,0,0,1,41,36.46a2.43,2.43,0,0,1,2.39-1.74q6.66,0,13.32,0A2.56,2.56,0,0,1,59.19,37,16,16,0,0,1,59.2,38.92Z"/><path class="cls-1" d="M42.68,71.85H28.33a7.2,7.2,0,0,1,14.35,0Z"/><path class="cls-1" d="M38.79,58.07a3.3,3.3,0,1,1-3.29-3.32A3.3,3.3,0,0,1,38.79,58.07Z"/></svg>