<svg id="Layer_1" data-name="Layer 1" xmlns="http://www.w3.org/2000/svg" viewBox="0 0 100 100"><defs><style>.cls-1{fill:#231f20;}</style></defs><path class="cls-1" d="M68.83,63.52,66.4,49.75a2.93,2.93,0,0,0-2.88-2.43H61.89l-.62-6.45A13.37,13.37,0,0,0,48,28.75H32.49A13.35,13.35,0,0,0,19.17,40.87l-.62,6.45H16.92A2.94,2.94,0,0,0,14,49.75L11.61,63.51a5.9,5.9,0,0,0,5.59,6.88v2.28A5.82,5.82,0,0,0,23,78.51h1.85a5.84,5.84,0,0,0,5.86-5.84V70.42h19v2.25a5.84,5.84,0,0,0,5.85,5.84h1.84a5.84,5.84,0,0,0,5.85-5.84V70.39a5.86,5.86,0,0,0,5.65-5.9A5.36,5.36,0,0,0,68.83,63.52Zm-46.49,1.6a4.95,4.95,0,1,1,4.94-5A4.95,4.95,0,0,1,22.34,65.12Zm1.23-17.8.57-6a8.35,8.35,0,0,1,8.35-7.59h.89v1.87a2.9,2.9,0,0,0,2.92,2.92h7.85a2.93,2.93,0,0,0,2.94-2.92V33.78H48a8.39,8.39,0,0,1,8.36,7.59l.26,2.7.31,3.25H23.57ZM59.07,65a5,5,0,0,1-1,.1,4.95,4.95,0,1,1,4.94-5,4.8,4.8,0,0,1-.45,2A4.93,4.93,0,0,1,59.07,65Z"/><path class="cls-1" d="M68.43,46.65,73.62,35c1.33-3,2.68-6,4-9s1.85-3.19,4.61-1.51l.56.34c1.68,1,1.86,1.91.62,3.5-1.71,2.2-3.47,4.37-5.22,6.55q-4.48,5.61-9,11.22a6,6,0,0,1-.63.6Z"/><path class="cls-1" d="M64.54,43.91q-.8-7.78-1.6-15.57a4.63,4.63,0,0,1-.1-1.16c.13-.81.16-2.16.57-2.3a6,6,0,0,1,3.28-.05c1,.29.79,1.41.66,2.27-.75,5-1.53,10-2.29,14.95l-.3,1.88Z"/><path class="cls-1" d="M71.07,49.89c.29-.24.57-.5.87-.72l12.83-9.26c1.35-1,1.69-.91,2.57.46C89.05,43,89,43.2,86,44.37l-13.67,5.3-1.16.4Z"/></svg>