<svg id="Layer_1" data-name="Layer 1" xmlns="http://www.w3.org/2000/svg" viewBox="0 0 100 100"><defs><style>.cls-1{fill:#231f20;}</style></defs><path class="cls-1" d="M77.76,52.64h-6a15.84,15.84,0,0,1,1,5.4V80.86a6.69,6.69,0,0,1-.39,2.25h10A6.76,6.76,0,0,0,89,76.35V63.91A11.28,11.28,0,0,0,77.76,52.64Z"/><path class="cls-1" d="M27.32,58a15.84,15.84,0,0,1,.95-5.4h-6A11.28,11.28,0,0,0,11,63.91V76.35a6.76,6.76,0,0,0,6.76,6.76h10a6.69,6.69,0,0,1-.39-2.25Z"/><path class="cls-1" d="M56.9,46.77H43.1A11.28,11.28,0,0,0,31.83,58V80.86a2.25,2.25,0,0,0,2.25,2.25H65.92a2.25,2.25,0,0,0,2.25-2.25V58A11.28,11.28,0,0,0,56.9,46.77Z"/><path class="cls-1" d="M50,16.89A13.55,13.55,0,1,0,63.55,30.44,13.57,13.57,0,0,0,50,16.89Z"/><path class="cls-1" d="M26.2,29.52A10.14,10.14,0,1,0,36.34,39.66,10.14,10.14,0,0,0,26.2,29.52Z"/><path class="cls-1" d="M73.8,29.52A10.14,10.14,0,1,0,83.93,39.66,10.15,10.15,0,0,0,73.8,29.52Z"/></svg>